<svg width="72" height="72" viewBox="0 0 72 72" fill="none" xmlns="http://www.w3.org/2000/svg">
<rect x="0.5" y="0.5" width="71" height="71" rx="35.5" fill="white"/>
<rect x="0.5" y="0.5" width="71" height="71" rx="35.5" stroke="#64C118"/>
<path d="M20.9352 14H42.0968L53.8626 25V55.2006C53.8626 56.7467 52.6092 58 51.0631 58H20.9352C19.3891 58 18.1357 56.7467 18.1357 55.2006V16.7994C18.1357 15.2533 19.3891 14 20.9352 14Z" fill="#DBF7C4"/>
<path d="M42.0968 14H20.9352C19.3891 14 18.1357 15.2533 18.1357 16.7994V55.2006C18.1357 56.7467 19.3891 58 20.9352 58H51.0631C52.6092 58 53.8626 56.7467 53.8626 55.2006V25M42.0968 14L53.8626 25M42.0968 14V22.2006C42.0968 23.7467 43.3502 25 44.8963 25H53.8626" stroke="black"/>
<path d="M24.6162 25.9998H40.1703" stroke="black" stroke-linecap="round" stroke-linejoin="round"/>
<path d="M24.6162 30.2744H40.1703" stroke="black" stroke-linecap="round" stroke-linejoin="round"/>
<path d="M24.6162 34.6665H34.5143" stroke="black" stroke-linecap="round" stroke-linejoin="round"/>
<path d="M45.0574 38.1711L38.6526 44.625C38.2578 45.0228 37.755 45.294 37.2075 45.4043L34.2529 45.9997L34.8438 43.0225C34.9533 42.471 35.2224 41.9643 35.6172 41.5665L42.0219 35.1126M45.0574 38.1711L46.6534 36.5628C47.2055 36.0064 47.2055 35.1042 46.6534 34.5478L45.6178 33.5042C45.0656 32.9478 44.1702 32.9478 43.6181 33.5042L42.0219 35.1126M45.0574 38.1711L42.0219 35.1126Z" fill="#74C3FF"/>
<path d="M45.0574 38.1711L38.6526 44.625C38.2578 45.0228 37.755 45.294 37.2075 45.4043L34.2529 45.9997L34.8438 43.0225C34.9533 42.471 35.2224 41.9643 35.6172 41.5665L42.0219 35.1126M45.0574 38.1711L46.6534 36.5628C47.2055 36.0064 47.2055 35.1042 46.6534 34.5478L45.6178 33.5042C45.0656 32.9478 44.1702 32.9478 43.6181 33.5042L42.0219 35.1126M45.0574 38.1711L42.0219 35.1126" stroke="black" stroke-width="1.30011" stroke-linecap="round" stroke-linejoin="round"/>
</svg>
