<svg width="14" height="14" viewBox="0 0 14 14" fill="none" xmlns="http://www.w3.org/2000/svg">
<path d="M0.292893 11.9498C-0.0976311 12.3403 -0.0976311 12.9734 0.292893 13.364C0.683418 13.7545 1.31658 13.7545 1.70711 13.364L0.292893 11.9498ZM13.3137 1.34315C13.3137 0.790867 12.866 0.343152 12.3137 0.343152L3.31371 0.343152C2.76142 0.343152 2.31371 0.790868 2.31371 1.34315C2.31371 1.89544 2.76142 2.34315 3.31371 2.34315L11.3137 2.34315L11.3137 10.3432C11.3137 10.8954 11.7614 11.3432 12.3137 11.3432C12.866 11.3432 13.3137 10.8954 13.3137 10.3432L13.3137 1.34315ZM1.70711 13.364L13.0208 2.05026L11.6066 0.636045L0.292893 11.9498L1.70711 13.364Z" fill="#404034"/>
</svg>
