<svg width="72" height="72" viewBox="0 0 72 72" fill="none" xmlns="http://www.w3.org/2000/svg">
<rect x="0.5" y="0.5" width="71" height="71" rx="35.5" fill="white"/>
<rect x="0.5" y="0.5" width="71" height="71" rx="35.5" stroke="#EF4040"/>
<path d="M30.5697 37.5835C30.5697 37.5835 32.8854 38.5835 34.5394 36.9168C36.1934 35.2502 36.7124 42.3309 34.5394 45.5835L26.9054 45.9168L25.9385 41.9168L30.5697 37.5835Z" fill="#8A7F7F"/>
<ellipse cx="34.54" cy="33.3333" rx="3.96965" ry="4" fill="#FFDDAC"/>
<path d="M20.9361 14H42.0978L53.8635 25V55.2006C53.8635 56.7467 52.6102 58 51.0641 58H20.9361C19.3901 58 18.1367 56.7467 18.1367 55.2006V16.7994C18.1367 15.2533 19.3901 14 20.9361 14Z" fill="#FBE3E3"/>
<path d="M42.0978 14H20.9361C19.3901 14 18.1367 15.2533 18.1367 16.7994V55.2006C18.1367 56.7467 19.3901 58 20.9361 58H51.0641C52.6102 58 53.8635 56.7467 53.8635 55.2006V25M42.0978 14L53.8635 25M42.0978 14V22.2006C42.0978 23.7467 43.3512 25 44.8972 25H53.8635" stroke="black"/>
<circle cx="35.5" cy="31.5" r="4.5" fill="#FFDBA8"/>
<path d="M31.6313 35.6822C31.6313 35.6822 36.5933 36.5894 38.2473 34.9227C39.9013 33.2561 40.4204 40.5126 38.2473 43.7652L27.967 44.0155L27 40.0155L31.6313 35.6822Z" fill="#FFB300"/>
<ellipse cx="41.8183" cy="40.6666" rx="5.29286" ry="5.33333" fill="#FFB4B5" stroke="black" stroke-width="0.975079"/>
<path d="M27.1895 43.5H26.6895V44H27.1895V43.5ZM37.4365 44C37.7127 44 37.9365 43.7761 37.9365 43.5C37.9365 43.2239 37.7127 43 37.4365 43V43.5V44ZM39.9397 31.5H39.4397C39.4397 33.7091 37.6488 35.5 35.4397 35.5V36V36.5C38.2011 36.5 40.4397 34.2614 40.4397 31.5H39.9397ZM35.4397 36V35.5C33.2305 35.5 31.4397 33.7091 31.4397 31.5H30.9397H30.4397C30.4397 34.2614 32.6783 36.5 35.4397 36.5V36ZM30.9397 31.5H31.4397C31.4397 29.2909 33.2305 27.5 35.4397 27.5V27V26.5C32.6783 26.5 30.4397 28.7386 30.4397 31.5H30.9397ZM35.4397 27V27.5C37.6488 27.5 39.4397 29.2909 39.4397 31.5H39.9397H40.4397C40.4397 28.7386 38.2011 26.5 35.4397 26.5V27ZM33.4397 35.5L33.296 35.0211C30.8161 35.7651 29.1034 36.4225 28.0555 37.6799C26.9943 38.9532 26.6895 40.7429 26.6895 43.5H27.1895H27.6895C27.6895 40.7571 28.0097 39.2968 28.8237 38.3201C29.6509 37.3275 31.0633 36.7349 33.5834 35.9789L33.4397 35.5ZM27.1895 43.5V44H37.4365V43.5V43H27.1895V43.5Z" fill="black"/>
<path d="M39.833 40.6665H44.4643" stroke="black" stroke-width="1.30011" stroke-linecap="round" stroke-linejoin="round"/>
</svg>
