<svg width="72" height="72" viewBox="0 0 72 72" fill="none" xmlns="http://www.w3.org/2000/svg">
<rect x="0.5" y="0.5" width="71" height="71" rx="35.5" fill="white"/>
<rect x="0.5" y="0.5" width="71" height="71" rx="35.5" stroke="#A36EF6"/>
<path d="M18.5 31.4998L25.4763 26.6296V33.601V36.2012L18.5 31.4998Z" fill="#F4EDFF"/>
<path d="M53.0879 31.7692L46.0879 26V32.9231L46.5 36.5L53.0879 31.7692Z" fill="#F4EDFF"/>
<path d="M18 31.7644L25.9412 25.9409" stroke="black" stroke-linecap="round" stroke-linejoin="round"/>
<path d="M53.9998 31.7644L46.0586 25.9409" stroke="black" stroke-linecap="round" stroke-linejoin="round"/>
<path d="M44.0473 18H27.9532C27.4196 18 26.9079 18.2102 26.5306 18.5845C26.1534 18.9587 25.9414 19.4662 25.9414 19.9955V37.2962L36.0002 43.9412L46.0591 37.2962V19.9955C46.0591 19.4662 45.8471 18.9587 45.4698 18.5845C45.0925 18.2102 44.5808 18 44.0473 18Z" fill="#F7EBEB" stroke="black" stroke-linecap="round" stroke-linejoin="round"/>
<path d="M34.7589 29.7931L35.3796 29.4827L37.5887 28.5881L36.0005 31.0344L35.471 31.7646L34.7589 31.0344L33.8828 30.1764L34.7589 29.7931Z" fill="#80D261"/>
<path d="M33.6823 30.5797L35.4209 32.3184C35.4209 32.3184 37.187 29.8459 38.3186 28.2616M42.955 30.0002C42.955 30.98 42.4682 31.847 41.724 32.3709C41.8042 32.829 41.7728 33.2996 41.6325 33.7429C41.4922 34.1863 41.2472 34.5893 40.9181 34.9178C40.5895 35.2469 40.1865 35.492 39.7432 35.6323C39.2998 35.7726 38.8292 35.804 38.3712 35.7238C38.104 36.1043 37.749 36.4149 37.3363 36.6292C36.9237 36.8435 36.4654 36.9551 36.0004 36.9547C35.0206 36.9547 34.1536 36.4679 33.6297 35.7238C33.1717 35.8039 32.7011 35.7725 32.2577 35.6322C31.8144 35.4919 31.4114 35.2469 31.0828 34.9178C30.7537 34.5893 30.5087 34.1863 30.3684 33.7429C30.2281 33.2996 30.1967 32.829 30.2769 32.3709C29.8963 32.1037 29.5857 31.7488 29.3715 31.3361C29.1572 30.9234 29.0455 30.4652 29.0459 30.0002C29.0459 29.0204 29.5327 28.1534 30.2769 27.6295C30.1967 27.1714 30.2281 26.7008 30.3684 26.2575C30.5087 25.8141 30.7537 25.4111 31.0828 25.0826C31.4114 24.7535 31.8144 24.5085 32.2577 24.3682C32.7011 24.2279 33.1717 24.1965 33.6297 24.2766C33.897 23.8961 34.2519 23.5856 34.6646 23.3713C35.0773 23.157 35.5355 23.0453 36.0004 23.0457C36.9803 23.0457 37.8473 23.5325 38.3712 24.2766C38.8292 24.1965 39.2998 24.2279 39.7432 24.3682C40.1865 24.5085 40.5895 24.7535 40.9181 25.0826C41.2471 25.4111 41.4921 25.8142 41.6324 26.2575C41.7727 26.7008 41.8041 27.1714 41.724 27.6295C42.1046 27.8967 42.4151 28.2516 42.6294 28.6643C42.8437 29.077 42.9554 29.5352 42.955 30.0002Z" fill="#80D261"/>
<path d="M33.6823 30.5797L35.4209 32.3184C35.4209 32.3184 37.187 29.8459 38.3186 28.2616M42.955 30.0002C42.955 30.98 42.4682 31.847 41.724 32.3709C41.8042 32.829 41.7728 33.2996 41.6325 33.7429C41.4922 34.1863 41.2472 34.5893 40.9181 34.9178C40.5895 35.2469 40.1865 35.492 39.7432 35.6323C39.2998 35.7726 38.8292 35.804 38.3712 35.7238C38.104 36.1043 37.749 36.4149 37.3363 36.6292C36.9237 36.8435 36.4654 36.9551 36.0004 36.9547C35.0206 36.9547 34.1536 36.4679 33.6297 35.7238C33.1717 35.8039 32.7011 35.7725 32.2577 35.6322C31.8144 35.4919 31.4114 35.2469 31.0828 34.9178C30.7537 34.5893 30.5087 34.1863 30.3684 33.7429C30.2281 33.2996 30.1967 32.829 30.2769 32.3709C29.8963 32.1037 29.5857 31.7488 29.3715 31.3361C29.1572 30.9234 29.0455 30.4652 29.0459 30.0002C29.0459 29.0204 29.5327 28.1534 30.2769 27.6295C30.1967 27.1714 30.2281 26.7008 30.3684 26.2575C30.5087 25.8141 30.7537 25.4111 31.0828 25.0826C31.4114 24.7535 31.8144 24.5085 32.2577 24.3682C32.7011 24.2279 33.1717 24.1965 33.6297 24.2766C33.897 23.8961 34.2519 23.5856 34.6646 23.3713C35.0773 23.157 35.5355 23.0453 36.0004 23.0457C36.9803 23.0457 37.8473 23.5325 38.3712 24.2766C38.8292 24.1965 39.2998 24.2279 39.7432 24.3682C40.1865 24.5085 40.5895 24.7535 40.9181 25.0826C41.2471 25.4111 41.4921 25.8142 41.6324 26.2575C41.7727 26.7008 41.8041 27.1714 41.724 27.6295C42.1046 27.8967 42.4151 28.2516 42.6294 28.6643C42.8437 29.077 42.9554 29.5352 42.955 30.0002Z" stroke="black" stroke-linecap="round" stroke-linejoin="round"/>
<path d="M54 31.7646V52.1403C53.9597 52.6479 53.7313 53.1214 53.3605 53.4662C52.9897 53.8109 52.5038 54.0016 52 53.9999H20C19.4962 54.0016 19.0103 53.8109 18.6395 53.4662C18.2687 53.1214 18.0403 52.6479 18 52.1403V31.7646L26 37.1618L36 43.893L46 37.1618L54 31.7646Z" fill="#A36EF6" stroke="black" stroke-linecap="round" stroke-linejoin="round"/>
</svg>
