<svg width="72" height="72" viewBox="0 0 72 72" fill="none" xmlns="http://www.w3.org/2000/svg">
<rect x="0.5" y="0.5" width="71" height="71" rx="35.5" fill="white"/>
<rect x="0.5" y="0.5" width="71" height="71" rx="35.5" stroke="#EB9131"/>
<path d="M20.9352 14H42.0968L53.8626 25V55.2006C53.8626 56.7467 52.6092 58 51.0631 58H20.9352C19.3891 58 18.1357 56.7467 18.1357 55.2006V16.7994C18.1357 15.2533 19.3891 14 20.9352 14Z" fill="#FFDEBA"/>
<path d="M42.0968 14H20.9352C19.3891 14 18.1357 15.2533 18.1357 16.7994V55.2006C18.1357 56.7467 19.3891 58 20.9352 58H51.0631C52.6092 58 53.8626 56.7467 53.8626 55.2006V25M42.0968 14L53.8626 25M42.0968 14V22.2006C42.0968 23.7467 43.3502 25 44.8963 25H53.8626" stroke="black"/>
<rect x="26.4492" y="35.1516" width="18.8516" height="3.90033" fill="white"/>
<rect x="27.0996" y="39.052" width="17.5515" height="8.45071" fill="#E6E6E6"/>
<rect x="31" y="26.051" width="9.10077" height="9.10077" fill="#80D261"/>
<path d="M38.2764 27.783C38.4164 27.6563 38.6174 27.6897 38.7207 27.8484C38.82 28.0004 38.7984 28.2193 38.665 28.3406L34.8184 31.8376L34.8174 31.8367C34.762 31.887 34.6941 31.9148 34.624 31.9148C34.5459 31.9148 34.4693 31.882 34.4111 31.8201V31.8191L33.3125 30.6541C33.1891 30.5226 33.1799 30.3031 33.29 30.1589C33.4049 30.0089 33.6084 29.9937 33.7383 30.1316L34.6396 31.0876L38.2764 27.783Z" fill="black" stroke="black" stroke-width="0.130011"/>
<path d="M44.9011 34.7339H40.5879V26.1188C40.5879 25.7225 40.3119 25.4009 39.9718 25.4009H31.3454C31.0052 25.4009 30.7292 25.7225 30.7292 26.1188V34.7339H26.416C26.0758 34.7339 25.7998 35.0555 25.7998 35.4518V39.0415C25.7998 39.4378 26.0758 39.7594 26.416 39.7594V46.9386C26.416 47.3349 26.692 47.6566 27.0321 47.6566H44.285C44.6251 47.6566 44.9011 47.3349 44.9011 46.9386V39.7594C45.2413 39.7594 45.5173 39.4378 45.5173 39.0415V35.4518C45.5173 35.0555 45.2413 34.7339 44.9011 34.7339ZM31.3454 26.1188H39.9718V34.7339H31.3454V26.1188ZM44.285 46.9386H27.0321V39.7594H44.285V46.9386ZM44.9011 39.0415H26.416V35.4518H44.9011V39.0415Z" fill="black" stroke="black" stroke-width="0.455037"/>
<path d="M38.8008 41.4248C39.2353 41.4248 39.6787 41.7154 39.6787 42.1729V43.7324C39.6787 44.1899 39.2353 44.4805 38.8008 44.4805H32.3008C31.8663 44.4805 31.4229 44.1899 31.4229 43.7324V42.1729C31.4229 41.7154 31.8663 41.4248 32.3008 41.4248H38.8008Z" fill="#EB9131" stroke="black" stroke-width="0.455037"/>
</svg>
