<svg width="72" height="72" viewBox="0 0 72 72" fill="none" xmlns="http://www.w3.org/2000/svg">
<rect x="0.5" y="0.5" width="71" height="71" rx="35.5" fill="white"/>
<rect x="0.5" y="0.5" width="71" height="71" rx="35.5" stroke="#2BB9E9"/>
<path d="M20.9352 14H42.0968L53.8626 25V55.2006C53.8626 56.7467 52.6092 58 51.0631 58H20.9352C19.3891 58 18.1357 56.7467 18.1357 55.2006V16.7994C18.1357 15.2533 19.3891 14 20.9352 14Z" fill="#E4F6FC"/>
<path d="M42.0968 14H20.9352C19.3891 14 18.1357 15.2533 18.1357 16.7994V55.2006C18.1357 56.7467 19.3891 58 20.9352 58H51.0631C52.6092 58 53.8626 56.7467 53.8626 55.2006V25M42.0968 14L53.8626 25M42.0968 14V22.2006C42.0968 23.7467 43.3502 25 44.8963 25H53.8626" stroke="black"/>
<path d="M28.4433 35.0595C28.4433 35.0595 32.0821 34.432 35.0594 34.3001C38.0366 34.1682 37.2324 38.8459 35.0594 42.0985L24.4736 42.0985V39.4319C24.6807 35.9321 26.6347 36.7518 28.4433 35.0595Z" fill="#E85F5F"/>
<ellipse cx="32.412" cy="30.4321" rx="3.96965" ry="4" fill="#FFDBA8"/>
<path d="M24 42.5H23.5V43H24V42.5ZM34.2471 43C34.5232 43 34.7471 42.7761 34.7471 42.5C34.7471 42.2239 34.5232 42 34.2471 42V42.5V43ZM36.7502 30.5H36.2502C36.2502 32.7091 34.4594 34.5 32.2502 34.5V35V35.5C35.0116 35.5 37.2502 33.2614 37.2502 30.5H36.7502ZM32.2502 35V34.5C30.0411 34.5 28.2502 32.7091 28.2502 30.5H27.7502H27.2502C27.2502 33.2614 29.4888 35.5 32.2502 35.5V35ZM27.7502 30.5H28.2502C28.2502 28.2909 30.0411 26.5 32.2502 26.5V26V25.5C29.4888 25.5 27.2502 27.7386 27.2502 30.5H27.7502ZM32.2502 26V26.5C34.4594 26.5 36.2502 28.2909 36.2502 30.5H36.7502H37.2502C37.2502 27.7386 35.0116 25.5 32.2502 25.5V26ZM30.2502 34.5L30.1065 34.0211C27.6266 34.7651 25.9139 35.4225 24.866 36.6799C23.8049 37.9532 23.5 39.7429 23.5 42.5H24H24.5C24.5 39.7571 24.8202 38.2968 25.6342 37.3201C26.4614 36.3275 27.8738 35.7349 30.3939 34.9789L30.2502 34.5ZM24 42.5V43H34.2471V42.5V42H24V42.5Z" fill="black"/>
<ellipse cx="41.8172" cy="40" rx="7.93929" ry="8" fill="#63CBE8"/>
<path d="M41.8172 48C43.5771 47.9999 45.2871 47.4108 46.6787 46.3254C48.0704 45.2399 49.0648 43.7194 49.506 42.0027M41.8172 48C40.0573 47.9999 38.3473 47.4108 36.9557 46.3254C35.5641 45.2399 34.5696 43.7194 34.1285 42.0027M41.8172 48C44.0093 48 45.7869 44.4178 45.7869 40C45.7869 35.5822 44.0093 32 41.8172 32M41.8172 48C39.6251 48 37.8476 44.4178 37.8476 40C37.8476 35.5822 39.6251 32 41.8172 32M49.506 42.0027C49.6692 41.3627 49.7565 40.6916 49.7565 40C49.7587 38.6241 49.407 37.2711 48.7359 36.0729M49.506 42.0027C47.1534 43.3168 44.507 44.0043 41.8172 44C39.0279 44 36.407 43.2756 34.1285 42.0027M34.1285 42.0027C33.9615 41.3484 33.8773 40.6755 33.8779 40C33.8779 38.5733 34.2484 37.2329 34.8986 36.0729M41.8172 32C43.2253 31.9994 44.6082 32.3763 45.8241 33.0921C47.0399 33.8078 48.0449 34.8366 48.7359 36.0729M41.8172 32C40.4091 31.9994 39.0262 32.3763 37.8104 33.0921C36.5945 33.8078 35.5896 34.8366 34.8986 36.0729M48.7359 36.0729C46.8152 37.7493 44.3583 38.6704 41.8172 38.6667C39.1726 38.6667 36.7537 37.6889 34.8986 36.0729" stroke="black" stroke-width="0.975079" stroke-linecap="round" stroke-linejoin="round"/>
</svg>
