<svg width="72" height="72" viewBox="0 0 72 72" fill="none" xmlns="http://www.w3.org/2000/svg">
<rect x="0.5" y="0.5" width="71" height="71" rx="35.5" fill="white"/>
<rect x="0.5" y="0.5" width="71" height="71" rx="35.5" stroke="#FF64D1"/>
<path d="M20.9361 14H42.0978L53.8635 25V55.2006C53.8635 56.7467 52.6102 58 51.0641 58H20.9361C19.3901 58 18.1367 56.7467 18.1367 55.2006V16.7994C18.1367 15.2533 19.3901 14 20.9361 14Z" fill="#FDE2F5"/>
<path d="M42.0978 14H20.9361C19.3901 14 18.1367 15.2533 18.1367 16.7994V55.2006C18.1367 56.7467 19.3901 58 20.9361 58H51.0641C52.6102 58 53.8635 56.7467 53.8635 55.2006V25M42.0978 14L53.8635 25M42.0978 14V22.2006C42.0978 23.7467 43.3512 25 44.8972 25H53.8635" stroke="black"/>
<ellipse cx="41.1566" cy="40.6667" rx="4.63125" ry="4.66667" fill="#FFE8C7"/>
<path d="M28.2803 37.2469C28.2803 37.2469 31 35.5 34.7012 35.0167C38.4024 34.5334 37.8801 39.9209 35.5 43.5L26.2803 43.436V40.7469L26.7803 38.7468L28.2803 37.2469Z" fill="#4769FF"/>
<circle cx="41" cy="40" r="6" fill="#FCB3E6" stroke="black"/>
<circle cx="34.5" cy="31.5" r="4.5" fill="#FFDBA8"/>
<path d="M25.7529 43.4014H25.2529V43.9014H25.7529V43.4014ZM36 43.9014C36.2761 43.9014 36.5 43.6775 36.5 43.4014C36.5 43.1252 36.2761 42.9014 36 42.9014V43.4014V43.9014ZM38.5032 31.4014H38.0032C38.0032 33.6105 36.2123 35.4014 34.0032 35.4014V35.9014V36.4014C36.7646 36.4014 39.0032 34.1628 39.0032 31.4014H38.5032ZM34.0032 35.9014V35.4014C31.794 35.4014 30.0032 33.6105 30.0032 31.4014H29.5032H29.0032C29.0032 34.1628 31.2417 36.4014 34.0032 36.4014V35.9014ZM29.5032 31.4014H30.0032C30.0032 29.1922 31.794 27.4014 34.0032 27.4014V26.9014V26.4014C31.2417 26.4014 29.0032 28.6399 29.0032 31.4014H29.5032ZM34.0032 26.9014V27.4014C36.2123 27.4014 38.0032 29.1922 38.0032 31.4014H38.5032H39.0032C39.0032 28.6399 36.7646 26.4014 34.0032 26.4014V26.9014ZM32.0032 35.4014L31.8595 34.9225C29.3796 35.6664 27.6669 36.3238 26.6189 37.5813C25.5578 38.8545 25.2529 40.6442 25.2529 43.4014H25.7529H26.2529C26.2529 40.6585 26.5732 39.1982 27.3871 38.2215C28.2143 37.2289 29.6267 36.6363 32.1468 35.8803L32.0032 35.4014ZM25.7529 43.4014V43.9014H36V43.4014V42.9014H25.7529V43.4014Z" fill="black"/>
<path d="M43.4337 39.4217C43.5863 39.4217 43.7189 39.4779 43.8313 39.5904C43.9438 39.7028 44 39.8394 44 40C44 40.1606 43.9438 40.2972 43.8313 40.4096C43.7269 40.5221 43.5944 40.5783 43.4337 40.5783H41.5783V42.4337C41.5783 42.5863 41.5221 42.7189 41.4096 42.8313C41.2972 42.9438 41.1606 43 41 43C40.8394 43 40.7028 42.9478 40.5904 42.8434C40.4779 42.7309 40.4217 42.5944 40.4217 42.4337V40.5783H38.5663C38.4056 40.5783 38.2691 40.5221 38.1566 40.4096C38.0522 40.2972 38 40.1606 38 40C38 39.8394 38.0562 39.7028 38.1687 39.5904C38.2811 39.4779 38.4137 39.4217 38.5663 39.4217H40.4217V37.5663C40.4217 37.4056 40.4779 37.2731 40.5904 37.1687C40.7028 37.0562 40.8394 37 41 37C41.1606 37 41.2972 37.0562 41.4096 37.1687C41.5221 37.2811 41.5783 37.4137 41.5783 37.5663V39.4217H43.4337Z" fill="black"/>
</svg>
