<svg width="72" height="72" viewBox="0 0 72 72" fill="none" xmlns="http://www.w3.org/2000/svg">
<rect x="0.5" y="0.5" width="71" height="71" rx="35.5" fill="white"/>
<rect x="0.5" y="0.5" width="71" height="71" rx="35.5" stroke="#FF8300"/>
<path d="M20.9361 14H42.0978L53.8635 25V55.2006C53.8635 56.7467 52.6102 58 51.0641 58H20.9361C19.3901 58 18.1367 56.7467 18.1367 55.2006V16.7994C18.1367 15.2533 19.3901 14 20.9361 14Z" fill="#FFEBD6"/>
<path d="M42.0978 14H20.9361C19.3901 14 18.1367 15.2533 18.1367 16.7994V55.2006C18.1367 56.7467 19.3901 58 20.9361 58H51.0641C52.6102 58 53.8635 56.7467 53.8635 55.2006V25M42.0978 14L53.8635 25M42.0978 14V22.2006C42.0978 23.7467 43.3512 25 44.8972 25H53.8635" stroke="black"/>
<path d="M50.6375 43.084L44.2327 49.5379C43.8379 49.9357 43.3351 50.2068 42.7876 50.3171L39.833 50.9126L40.4239 47.9354C40.5334 47.3838 40.8025 46.8771 41.1972 46.4793L47.602 40.0254M50.6375 43.084L52.2335 41.4756C52.7856 40.9192 52.7856 40.017 52.2335 39.4606L51.1978 38.4171C50.6457 37.8607 49.7503 37.8607 49.1981 38.4171L47.602 40.0254M50.6375 43.084L47.602 40.0254Z" fill="#FFBC1E"/>
<path d="M50.6375 43.084L44.2327 49.5379C43.8379 49.9357 43.3351 50.2068 42.7876 50.3171L39.833 50.9126L40.4239 47.9354C40.5334 47.3838 40.8025 46.8771 41.1972 46.4793L47.602 40.0254M50.6375 43.084L52.2335 41.4756C52.7856 40.9192 52.7856 40.017 52.2335 39.4606L51.1978 38.4171C50.6457 37.8607 49.7503 37.8607 49.1981 38.4171L47.602 40.0254M50.6375 43.084L47.602 40.0254" stroke="black" stroke-width="1.30011" stroke-linecap="round" stroke-linejoin="round"/>
<path d="M25.7366 32.9924C25.832 32.9924 25.9131 33.0282 25.9799 33.0997C26.0467 33.1665 26.0801 33.2476 26.0801 33.3431C26.0801 33.4433 26.0467 33.5292 25.9799 33.6007C25.9131 33.6675 25.832 33.7009 25.7366 33.7009H22.8093C22.6996 33.7009 22.6042 33.6628 22.5231 33.5864C22.4467 33.5101 22.4085 33.4194 22.4085 33.3144V29.2134C22.4085 29.1085 22.4467 29.0178 22.5231 28.9415C22.6042 28.8651 22.6996 28.827 22.8093 28.827H25.7366C25.832 28.827 25.9131 28.8627 25.9799 28.9343C26.0467 29.0059 26.0801 29.0894 26.0801 29.1848C26.0801 29.2802 26.0467 29.3637 25.9799 29.4353C25.9131 29.5021 25.832 29.5355 25.7366 29.5355H23.2101V30.9025H25.3644C25.4551 30.9025 25.5338 30.9383 25.6006 31.0099C25.6674 31.0767 25.7008 31.1578 25.7008 31.2532C25.7008 31.3534 25.6674 31.4393 25.6006 31.5109C25.5386 31.5777 25.4598 31.6111 25.3644 31.6111H23.2101V32.9924H25.7366ZM29.911 28.827C30.0064 28.827 30.0876 28.8627 30.1544 28.9343C30.2212 29.0059 30.2546 29.0894 30.2546 29.1848C30.2546 29.2802 30.2212 29.3637 30.1544 29.4353C30.0876 29.5021 30.0064 29.5355 29.911 29.5355H27.6064V30.9025H29.5746C29.6701 30.9025 29.7512 30.9383 29.818 31.0099C29.8848 31.0767 29.9182 31.1578 29.9182 31.2532C29.9182 31.3534 29.8848 31.4393 29.818 31.5109C29.7512 31.5777 29.6701 31.6111 29.5746 31.6111H27.6064V33.386C27.6064 33.491 27.5659 33.5816 27.4848 33.658C27.4084 33.7343 27.3154 33.7725 27.2056 33.7725C27.0959 33.7725 27.0005 33.7343 26.9194 33.658C26.843 33.5816 26.8048 33.491 26.8048 33.386V29.2134C26.8048 29.1085 26.843 29.0178 26.9194 28.9415C27.0005 28.8651 27.0959 28.827 27.2056 28.827H29.911ZM35.817 28.827C35.9124 28.827 35.9935 28.8627 36.0603 28.9343C36.1271 29.0059 36.1605 29.0894 36.1605 29.1848C36.1605 29.2802 36.1271 29.3637 36.0603 29.4353C35.9935 29.5021 35.9124 29.5355 35.817 29.5355H33.5124V30.9025H35.4806C35.576 30.9025 35.6572 30.9383 35.724 31.0099C35.7908 31.0767 35.8242 31.1578 35.8242 31.2532C35.8242 31.3534 35.7908 31.4393 35.724 31.5109C35.6572 31.5777 35.576 31.6111 35.4806 31.6111H33.5124V33.386C33.5124 33.491 33.4719 33.5816 33.3908 33.658C33.3144 33.7343 33.2214 33.7725 33.1116 33.7725C33.0019 33.7725 32.9065 33.7343 32.8253 33.658C32.749 33.5816 32.7108 33.491 32.7108 33.386V29.2134C32.7108 29.1085 32.749 29.0178 32.8253 28.9415C32.9065 28.8651 33.0019 28.827 33.1116 28.827H35.817ZM36.2773 32.0763C36.2773 31.8329 36.3203 31.6063 36.4062 31.3963C36.4968 31.1864 36.6233 31.0051 36.7855 30.8524C36.9477 30.7045 37.1338 30.59 37.3438 30.5089C37.5585 30.423 37.7851 30.38 38.0237 30.38C38.2622 30.38 38.4889 30.423 38.7036 30.5089C38.9183 30.59 39.1044 30.7045 39.2619 30.8524C39.4241 31.0051 39.5481 31.1864 39.634 31.3963C39.7199 31.6015 39.7628 31.8282 39.7628 32.0763C39.7628 32.3292 39.7199 32.5606 39.634 32.7705C39.5481 32.9804 39.4241 33.1594 39.2619 33.3073C39.1092 33.4552 38.9231 33.5697 38.7036 33.6508C38.4889 33.7319 38.2622 33.7725 38.0237 33.7725C37.7803 33.7725 37.5513 33.7319 37.3366 33.6508C37.1219 33.5697 36.9382 33.4552 36.7855 33.3073C36.6233 33.1594 36.4968 32.9804 36.4062 32.7705C36.3203 32.5606 36.2773 32.3292 36.2773 32.0763ZM37.0074 32.0763C37.0074 32.3769 37.1004 32.6321 37.2865 32.8421C37.3772 32.9423 37.4845 33.021 37.6086 33.0783C37.7374 33.1307 37.8758 33.157 38.0237 33.157C38.1668 33.157 38.3004 33.1307 38.4245 33.0783C38.5533 33.021 38.663 32.9423 38.7537 32.8421C38.9446 32.6274 39.04 32.3721 39.04 32.0763C39.04 31.7804 38.9446 31.5252 38.7537 31.3105C38.663 31.2103 38.5533 31.1339 38.4245 31.0814C38.3004 31.0242 38.1668 30.9956 38.0237 30.9956C37.8758 30.9956 37.7374 31.0242 37.6086 31.0814C37.4845 31.1339 37.3772 31.2103 37.2865 31.3105C37.1004 31.5204 37.0074 31.7757 37.0074 32.0763ZM42.1342 30.38C42.3585 30.38 42.5541 30.4278 42.7211 30.5232C42.8834 30.6138 42.9645 30.7355 42.9645 30.8882C42.9645 30.9836 42.9335 31.0623 42.8714 31.1244C42.8142 31.1864 42.7402 31.2174 42.6496 31.2174C42.578 31.2174 42.4945 31.1912 42.3991 31.1387C42.3895 31.1339 42.349 31.1172 42.2774 31.0886C42.2058 31.0552 42.1175 31.0385 42.0126 31.0385C41.7597 31.0385 41.5736 31.1458 41.4543 31.3606C41.3398 31.5753 41.2826 31.8305 41.2826 32.1264V33.4146C41.2826 33.5148 41.2468 33.6007 41.1752 33.6723C41.1036 33.7391 41.0177 33.7725 40.9175 33.7725C40.8126 33.7725 40.7243 33.7391 40.6527 33.6723C40.5859 33.6007 40.5525 33.5148 40.5525 33.4146V30.7379C40.5525 30.6377 40.5883 30.5542 40.6599 30.4874C40.7315 30.4158 40.8173 30.38 40.9175 30.38C41.0225 30.38 41.1084 30.4158 41.1752 30.4874C41.2468 30.5542 41.2826 30.6377 41.2826 30.7379V30.8381C41.4877 30.5327 41.7716 30.38 42.1342 30.38ZM43.4321 30.7451C43.4321 30.6449 43.4655 30.5614 43.5323 30.4946C43.6039 30.423 43.6922 30.3872 43.7971 30.3872C43.9021 30.3872 43.988 30.423 44.0548 30.4946C44.1264 30.5614 44.1622 30.6449 44.1622 30.7451V30.7522C44.2624 30.6329 44.3888 30.5423 44.5415 30.4802C44.6942 30.4182 44.8612 30.3872 45.0425 30.3872C45.3001 30.3872 45.5244 30.4445 45.7152 30.559C45.887 30.6639 46.0111 30.7975 46.0874 30.9598C46.2115 30.7737 46.3546 30.6329 46.5168 30.5375C46.6886 30.4373 46.9057 30.3872 47.1681 30.3872C47.5451 30.3872 47.8457 30.4922 48.0699 30.7021C48.299 30.9168 48.4135 31.2484 48.4135 31.6969V33.4218C48.4135 33.5172 48.3753 33.6007 48.299 33.6723C48.2274 33.7439 48.1439 33.7797 48.0485 33.7797C47.9483 33.7797 47.8624 33.7439 47.7908 33.6723C47.7192 33.6007 47.6834 33.5172 47.6834 33.4218V31.883C47.6834 31.5872 47.6214 31.3629 47.4974 31.2103C47.3781 31.0767 47.2111 31.0099 46.9964 31.0099C46.8771 31.0099 46.7697 31.0361 46.6743 31.0886C46.5789 31.1363 46.5025 31.2079 46.4453 31.3033C46.3403 31.4751 46.2878 31.7256 46.2878 32.0548V33.4218C46.2878 33.5172 46.2496 33.6007 46.1733 33.6723C46.1017 33.7439 46.0182 33.7797 45.9228 33.7797C45.8226 33.7797 45.7367 33.7439 45.6651 33.6723C45.5936 33.6007 45.5578 33.5172 45.5578 33.4218V31.883C45.5578 31.5872 45.4958 31.3629 45.3717 31.2103C45.2524 31.0767 45.0854 31.0099 44.8707 31.0099C44.7514 31.0099 44.6441 31.0385 44.5486 31.0957C44.4532 31.1482 44.3769 31.2246 44.3196 31.3248C44.2242 31.4918 44.1717 31.7447 44.1622 32.0834V33.4146C44.1622 33.5148 44.124 33.6007 44.0476 33.6723C43.9761 33.7439 43.8926 33.7797 43.7971 33.7797C43.6922 33.7797 43.6039 33.7439 43.5323 33.6723C43.4655 33.6007 43.4321 33.5148 43.4321 33.4146V30.7451Z" fill="black"/>
<path d="M23.292 37.4702H41.1554" stroke="black" stroke-width="1.30011" stroke-linecap="round" stroke-linejoin="round"/>
<path d="M23.292 41.4705H41.1554" stroke="black" stroke-width="1.30011" stroke-linecap="round" stroke-linejoin="round"/>
<path d="M23.292 45.4702H33.1901" stroke="black" stroke-width="1.30011" stroke-linecap="round" stroke-linejoin="round"/>
</svg>
